<svg width="27" height="26" viewBox="0 0 27 26" fill="none" xmlns="http://www.w3.org/2000/svg">
<path d="M26.549 7.66507L25.5569 6.67398C24.9561 6.07205 23.9812 6.07327 23.3792 6.67398L22.452 7.60245L25.6208 10.7712L26.549 9.84378C27.1499 9.24197 27.1499 8.267 26.549 7.66507H26.549Z" fill="#FF963C"/>
<path d="M13.76 16.2868V19.4561H16.9294L24.7571 11.6284L21.5879 8.45898L13.76 16.2868Z" fill="#FF963C"/>
<rect x="6.34717" y="6.93436" width="8.9516" height="1.49193" fill="#FF963C"/>
<rect x="6.34717" y="12.3984" width="8.9516" height="1.49193" fill="#FF963C"/>
<rect x="6.36633" y="17.8626" width="5.47042" height="1.49193" fill="#FF963C"/>
<path d="M19.5858 23.5985C19.5858 23.826 19.4027 24.0117 19.1775 24.0129H2.36658C2.14148 24.0117 1.9596 23.826 1.95838 23.5985V2.40259C1.9596 2.17407 2.14149 1.98828 2.36658 1.98718H19.1775C19.4027 1.98828 19.5858 2.17407 19.5858 2.40259V8.38971L21.5441 6.40253V2.40259C21.543 1.07593 20.4861 0.0011 19.1775 0H2.36658C1.05933 0.0011 0.00147 1.07593 0 2.40259V23.5985C0.00146 24.9252 1.05933 25.9989 2.36658 26H19.1775C20.4861 25.9989 21.543 25.7748 21.5441 24.4482V16.9488L19.5858 18.9359V23.5985Z" fill="#FF963C"/>
</svg>
